<svg width="95" height="45" viewBox="0 0 95 45" fill="none" xmlns="http://www.w3.org/2000/svg">
<path d="M47.8017 20.9236C47.3586 20.3338 47.1466 19.6367 47.197 18.935V16.0518C47.197 15.168 47.3974 14.4963 47.7983 14.0368C48.1992 13.5773 48.8877 13.3485 49.8638 13.3505C50.7811 13.3505 51.4322 13.546 51.8172 13.9371C52.2372 14.4361 52.4415 15.0462 52.3948 15.6617V16.3393H50.7539V15.6529C50.7597 15.4283 50.7438 15.2036 50.7063 14.9813C50.6827 14.8292 50.6001 14.6886 50.4719 14.5824C50.3034 14.4678 50.0912 14.4123 49.8774 14.4269C49.6526 14.4124 49.4296 14.471 49.2523 14.5912C49.1094 14.7088 49.0141 14.8631 48.9805 15.0311C48.9335 15.2665 48.9118 15.5051 48.916 15.7438V19.243C48.8901 19.5805 48.9625 19.9183 49.1266 20.2255C49.2082 20.3295 49.3216 20.4119 49.4541 20.4637C49.5866 20.5154 49.7331 20.5345 49.8774 20.5189C50.0876 20.5338 50.2962 20.4769 50.4583 20.3605C50.592 20.2459 50.678 20.0964 50.7029 19.9352C50.7413 19.703 50.7583 19.4686 50.7539 19.2342V18.5244H52.3948V19.1726C52.4408 19.8141 52.2415 20.451 51.8274 20.9852C51.4503 21.4134 50.8082 21.6275 49.8638 21.6275C48.9194 21.6275 48.2059 21.3988 47.8017 20.9236Z" fill="#AFB1B8"/>
<path d="M54.6336 20.9529C54.2191 20.5042 54.0119 19.8501 54.0119 18.9849V15.9521C54.0119 15.0956 54.2191 14.4474 54.6336 14.0075C55.048 13.5675 55.7411 13.3485 56.7127 13.3505C57.6775 13.3505 58.3671 13.5695 58.7815 14.0075C59.196 14.4474 59.4066 15.0956 59.4066 15.9521V18.9849C59.4066 19.8413 59.196 20.4983 58.7747 20.95C58.3535 21.4017 57.6673 21.6275 56.7127 21.6275C55.7581 21.6275 55.0514 21.3988 54.6336 20.9529ZM57.477 20.2255C57.6255 19.9444 57.6931 19.6365 57.6741 19.328V15.6148C57.6931 15.3123 57.6266 15.0103 57.4804 14.7349C57.3972 14.6287 57.281 14.545 57.1453 14.4931C57.0095 14.4412 56.8596 14.4234 56.7127 14.4416C56.5653 14.4238 56.415 14.4419 56.2788 14.4937C56.1426 14.5455 56.0258 14.629 55.9415 14.7349C55.7921 15.0095 55.7244 15.3119 55.7445 15.6148V19.3456C55.7238 19.6542 55.7915 19.9625 55.9415 20.2431C56.0372 20.3378 56.1552 20.4136 56.2876 20.4656C56.42 20.5175 56.5638 20.5444 56.7093 20.5444C56.8547 20.5444 56.9985 20.5175 57.1309 20.4656C57.2634 20.4136 57.3814 20.3378 57.477 20.2431V20.2255Z" fill="#AFB1B8"/>
<path d="M61.3803 13.439H63.1468L64.4751 19.0346L65.834 13.439H67.553L67.7263 21.5157H66.4557L66.3198 15.9025L65.0085 21.5157H63.9893L62.6304 15.8819L62.5047 21.5157H61.2206L61.3803 13.439Z" fill="#AFB1B8"/>
<path d="M69.7069 13.439H72.4586C74.044 13.439 74.8367 14.2034 74.8367 15.7324C74.8367 17.1968 74.0021 17.928 72.3329 17.926H71.3953V21.5157H69.6967L69.7069 13.439ZM72.0578 16.8908C72.2256 16.9092 72.396 16.8959 72.5573 16.8518C72.7186 16.8078 72.8669 16.734 72.992 16.6356C73.1868 16.3628 73.2727 16.0425 73.2366 15.7236C73.2455 15.4772 73.2181 15.2308 73.155 14.9904C73.1308 14.9101 73.0883 14.8347 73.03 14.7688C72.9716 14.7028 72.8987 14.6475 72.8153 14.6062C72.5795 14.5085 72.3189 14.4641 72.0578 14.4771H71.3987V16.8908H72.0578Z" fill="#AFB1B8"/>
<path d="M77.2861 13.439H79.1104L80.9823 21.5157H79.3992L79.0289 19.6534H77.4016L77.0211 21.5157H75.4143L77.2861 13.439ZM78.8454 18.7179L78.2102 15.3276L77.5749 18.7179H78.8454Z" fill="#AFB1B8"/>
<path d="M82.494 13.439H83.683L85.9592 18.0463V13.439H87.369V21.5157H86.2378L83.948 16.706V21.5157H82.4906L82.494 13.439Z" fill="#AFB1B8"/>
<path d="M90.6712 18.4362L88.7789 13.4503H90.3722L91.5273 16.653L92.611 13.4503H94.1703L92.3018 18.4362V21.5157H90.6712V18.4362Z" fill="#AFB1B8"/>
<path d="M50.4244 25.047V25.4693H49.0384V28.7513H48.4574V25.4693H47.0646V25.047H50.4244Z" fill="#AFB1B8"/>
<path d="M54.7694 28.7516H54.3209C54.2754 28.754 54.2305 28.7414 54.1953 28.7164C54.1613 28.6949 54.1354 28.6653 54.1205 28.6313L53.7196 27.7515H51.7968L51.3959 28.6313C51.3845 28.6681 51.3636 28.7022 51.3348 28.7311C51.2992 28.7556 51.2545 28.7681 51.2091 28.7662H50.7606L52.4593 25.0621H53.0504L54.7694 28.7516ZM51.9565 27.3761H53.56L52.8805 25.8687C52.8304 25.7546 52.7884 25.6381 52.7548 25.5197C52.731 25.59 52.7107 25.6575 52.6903 25.7161L52.6291 25.8716L51.9565 27.3761Z" fill="#AFB1B8"/>
<path d="M57.6978 28.3877C57.8042 28.3925 57.9108 28.3925 58.0171 28.3877C58.109 28.3796 58.1999 28.3649 58.2889 28.3437C58.3722 28.3261 58.4539 28.3036 58.5335 28.2763C58.6083 28.2499 58.683 28.2176 58.7611 28.1853V27.3523H58.0817C58.0649 27.3531 58.0481 27.351 58.0323 27.3459C58.0165 27.3409 58.0021 27.3331 57.99 27.323C57.9788 27.3147 57.97 27.3043 57.9641 27.2926C57.9582 27.2809 57.9555 27.2682 57.956 27.2555V26.971H59.2741V28.3907C59.1665 28.4571 59.0529 28.516 58.9344 28.5667C58.8133 28.6183 58.6871 28.6605 58.5573 28.6928C58.4184 28.7281 58.2764 28.7536 58.1327 28.7691C57.968 28.7848 57.8024 28.7927 57.6367 28.7925C57.3437 28.7946 57.053 28.7478 56.7806 28.6547C56.5262 28.5664 56.2951 28.4347 56.1011 28.2675C55.912 28.0986 55.7631 27.8993 55.6629 27.6808C55.5558 27.4353 55.5028 27.1747 55.5066 26.9123C55.503 26.6484 55.5548 26.386 55.6595 26.138C55.7572 25.9185 55.9064 25.7187 56.0977 25.5513C56.2916 25.3847 56.5228 25.2539 56.7772 25.1671C57.0681 25.0726 57.3768 25.0259 57.6876 25.0292C57.8458 25.0291 58.0037 25.0398 58.1598 25.0615C58.2979 25.0809 58.4334 25.1124 58.5641 25.1554C58.6829 25.1939 58.7968 25.2431 58.9038 25.302C59.008 25.3599 59.1068 25.4246 59.1994 25.4956L59.0363 25.7244C59.0235 25.7453 59.0045 25.7628 58.9812 25.7752C58.9579 25.7876 58.9312 25.7944 58.9038 25.7948C58.8662 25.7937 58.8297 25.7836 58.7985 25.7655C58.7476 25.742 58.6932 25.7127 58.632 25.6775C58.5598 25.6384 58.4836 25.605 58.4044 25.5777C58.3032 25.5427 58.1986 25.5152 58.0919 25.4956C57.9496 25.473 57.8051 25.4622 57.6604 25.4633C57.4363 25.4612 57.2138 25.496 57.0048 25.566C56.8157 25.6315 56.6454 25.7315 56.5054 25.8593C56.3646 25.9925 56.257 26.1492 56.1894 26.3198C56.0377 26.721 56.0377 27.1535 56.1894 27.5547C56.2638 27.7289 56.3795 27.8878 56.5292 28.0211C56.6685 28.1482 56.8376 28.2482 57.0252 28.3144C57.2412 28.3784 57.4701 28.4034 57.6978 28.3877V28.3877Z" fill="#AFB1B8"/>
<path d="M63.1129 28.3289H64.9678V28.7513H62.5456V25.047H63.1265L63.1129 28.3289Z" fill="#AFB1B8"/>
<path d="M66.8975 28.7513H66.3165V25.047H66.8975V28.7513Z" fill="#AFB1B8"/>
<path d="M69.0581 25.0646C69.0926 25.0816 69.1227 25.1046 69.1464 25.1321L71.6298 27.9244C71.6264 27.8804 71.6264 27.8364 71.6298 27.7924C71.6298 27.7513 71.6298 27.7103 71.6298 27.6721V25.0323H72.1359V28.7515H71.8438C71.8005 28.7546 71.7571 28.7475 71.7181 28.731C71.6828 28.7125 71.6517 28.6887 71.6264 28.6606L69.1464 25.8712C69.1464 25.9152 69.1464 25.9563 69.1464 25.9973C69.1464 26.0384 69.1464 26.0765 69.1464 26.1117V28.7515H68.6606V25.047H68.963C68.9958 25.0471 69.0282 25.0531 69.0581 25.0646V25.0646Z" fill="#AFB1B8"/>
<path d="M76.4131 25.047V25.4547H74.3544V26.6777H76.0224V27.0708H74.3544V28.3349H76.4131V28.7426H73.7565V25.047H76.4131Z" fill="#AFB1B8"/>
<path d="M15.5384 2.17089L41.3335 8.4942V30.6522L15.5384 24.3318V2.17089ZM13.884 0.282104V25.4082L42.9846 32.5439V7.42076L13.884 0.282104Z" fill="#AFB1B8"/>
<path d="M29.4806 44.2076L0.376709 37.0659V11.9425L29.4806 19.0812V44.2076Z" fill="#AFB1B8"/>
<path d="M14.3664 1.88637L39.8251 8.13038L28.9982 17.4803L3.53611 11.2333L14.3664 1.88637ZM13.884 0.282104L0.376709 11.9431L29.4806 19.0816L42.9845 7.42063L13.884 0.282104Z" fill="#AFB1B8"/>
<path d="M31.1181 42.7942L42.9845 32.5469L31.1181 29.6346V42.7942Z" fill="#AFB1B8"/>
</svg>
