<svg width="41" height="53" viewBox="0 0 41 53" fill="none" xmlns="http://www.w3.org/2000/svg">
<path fill-rule="evenodd" clip-rule="evenodd" d="M17.4903 3.4499H17.3537C17.1438 3.43719 16.9338 3.4321 16.7238 3.42702H16.7238H16.7036H16.2685C15.8713 3.42702 15.4666 3.43719 15.0643 3.45753C15.034 3.45532 15.0036 3.45532 14.9733 3.45753C11.3289 3.66401 7.75842 4.5749 4.4572 6.1403L4.02461 6.34882V28.49L5.0365 28.1467C5.92444 27.8415 6.87055 27.5669 7.84956 27.3126C10.4961 26.6332 13.2135 26.2721 15.9447 26.2369V29.146C15.5829 29.1486 15.2313 29.1587 14.8797 29.1765H14.7962C12.6942 29.2919 10.6084 29.6121 8.568 30.1327C5.98387 30.7796 3.49104 31.751 1.14832 33.024V4.62727C3.5814 3.20813 6.20204 2.14225 8.93228 1.46134C11.3294 0.842433 13.7936 0.524688 16.2685 0.515381H16.696C17.207 0.528095 17.7054 0.550982 18.1734 0.586582C19.4064 0.673157 20.6296 0.868009 21.8288 1.16891V4.03223C20.6641 3.76089 19.4799 3.58233 18.2872 3.49822C18.263 3.49617 18.2388 3.4941 18.2146 3.49204C17.9678 3.47099 17.7207 3.4499 17.4903 3.4499ZM22.5295 6.37677C23.1644 6.42508 23.8222 6.44797 24.4875 6.44797C27.0892 6.43846 29.6799 6.10621 32.2006 5.45877C34.7835 4.80934 37.2753 3.83716 39.6178 2.56494V30.4556C37.1834 31.8739 34.562 32.9397 31.8313 33.6215C29.4338 34.2381 26.9698 34.5549 24.4951 34.5649C22.62 34.5801 20.7504 34.3597 18.9297 33.9089V5.83767C19.3597 5.93684 19.8024 6.02839 20.2527 6.10467C20.9914 6.22928 21.7706 6.32082 22.5295 6.37677ZM36.7238 6.59291L35.7119 6.93366C34.7809 7.24644 33.8424 7.52616 32.8988 7.77537C30.1516 8.48134 27.3281 8.84348 24.4926 8.85356C23.8323 8.85356 23.2252 8.83576 22.6383 8.79762L21.8313 8.74422V28.8332V31.5211L22.5244 31.5821C23.167 31.638 23.8298 31.666 24.4976 31.666C26.7311 31.6565 28.9549 31.3687 31.1179 30.8091C32.899 30.3623 34.6319 29.7396 36.2912 28.9502L36.7238 28.7417V6.59291Z" fill="#AFB1B8"/>
<path d="M3.11384 42.7278C2.96837 42.5769 2.79299 42.4584 2.59907 42.38C2.40515 42.3016 2.197 42.265 1.98812 42.2726C1.7655 42.2696 1.54452 42.3111 1.33798 42.3946C1.14861 42.4701 0.976476 42.5834 0.832031 42.7278C0.68916 42.8726 0.578001 43.0458 0.505697 43.2363C0.426388 43.436 0.386851 43.6494 0.389329 43.8644V47.6585C0.380282 47.9258 0.431297 48.1918 0.538583 48.4366C0.628142 48.631 0.757434 48.8043 0.918042 48.9452C1.06966 49.0728 1.24769 49.1649 1.43917 49.2147C1.62365 49.2666 1.81426 49.2931 2.00582 49.2936C2.21712 49.2957 2.42624 49.2505 2.61802 49.1613C2.80766 49.0784 2.97948 48.9592 3.12396 48.8104C3.26485 48.663 3.37723 48.4905 3.45536 48.3018C3.53644 48.1105 3.57776 47.9046 3.57678 47.6966V47.2719H2.58513V47.6102C2.58808 47.7256 2.5683 47.8406 2.52695 47.9484C2.49465 48.0291 2.44548 48.102 2.38275 48.162C2.32132 48.2116 2.25087 48.2487 2.17531 48.2713C2.10835 48.2936 2.03841 48.3056 1.96788 48.3069C1.87934 48.3172 1.78967 48.3038 1.70793 48.2681C1.62619 48.2324 1.55529 48.1756 1.50241 48.1035C1.40893 47.951 1.3631 47.7738 1.37086 47.5949V44.0577C1.36471 43.8616 1.4064 43.6669 1.49229 43.4906C1.54377 43.4106 1.6166 43.3466 1.70249 43.3062C1.78837 43.2657 1.88383 43.2503 1.978 43.2618C2.06347 43.2587 2.14841 43.2766 2.22551 43.3138C2.30262 43.351 2.3696 43.4064 2.4207 43.4754C2.53166 43.6211 2.58969 43.8005 2.58513 43.984V44.312H3.56666V43.9255C3.56866 43.6985 3.52744 43.4732 3.44524 43.2618C3.37198 43.063 3.25922 42.8813 3.11384 42.7278V42.7278Z" fill="#AFB1B8"/>
<path d="M9.00563 42.6845C8.68942 42.4175 8.29033 42.27 7.87737 42.2675C7.67539 42.2683 7.47509 42.3044 7.28541 42.3743C7.09284 42.4433 6.91512 42.5486 6.76176 42.6845C6.59747 42.8322 6.46639 43.0134 6.37724 43.216C6.27734 43.4477 6.22817 43.6983 6.23305 43.9509V47.5898C6.22621 47.8457 6.27544 48.1001 6.37724 48.3348C6.46699 48.5305 6.59823 48.7041 6.76176 48.8434C6.91336 48.9842 7.09139 49.0931 7.28541 49.1638C7.47509 49.2336 7.67539 49.2698 7.87737 49.2706C8.0794 49.2703 8.27978 49.2341 8.46933 49.1638C8.66666 49.0921 8.84865 48.9834 9.00563 48.8434C9.16381 48.7015 9.29125 48.5284 9.38003 48.3348C9.48183 48.1001 9.53106 47.8457 9.52422 47.5898V43.9509C9.5291 43.6983 9.47993 43.4477 9.38003 43.216C9.29176 43.0155 9.16446 42.8348 9.00563 42.6845V42.6845ZM8.54269 47.5898C8.55104 47.6868 8.53766 47.7844 8.50351 47.8755C8.46936 47.9666 8.41532 48.0488 8.34537 48.1162C8.21439 48.226 8.04922 48.2862 7.87863 48.2862C7.70805 48.2862 7.54288 48.226 7.4119 48.1162C7.34195 48.0488 7.28791 47.9666 7.25376 47.8755C7.21961 47.7844 7.20622 47.6868 7.21458 47.5898V43.9509C7.20622 43.8539 7.21961 43.7562 7.25376 43.6651C7.28791 43.574 7.34195 43.4918 7.4119 43.4245C7.54288 43.3146 7.70805 43.2545 7.87863 43.2545C8.04922 43.2545 8.21439 43.3146 8.34537 43.4245C8.41532 43.4918 8.46936 43.574 8.50351 43.6651C8.53766 43.7562 8.55104 43.8539 8.54269 43.9509V47.5898Z" fill="#AFB1B8"/>
<path d="M16.744 49.2148V42.326H15.7903L14.5381 45.9726H14.5204L13.258 42.326H12.3145V49.2148H13.2985V45.0241H13.3162L14.28 47.9866H14.7708L15.7422 45.0241H15.7599V49.2148H16.744Z" fill="#AFB1B8"/>
<path d="M22.3348 42.809C22.1833 42.6391 21.992 42.5097 21.7782 42.4327C21.5479 42.3578 21.3069 42.3217 21.0648 42.3259H19.6027V49.2146H20.5842V46.5242H21.0901C21.3964 46.5382 21.7011 46.4734 21.9755 46.3361C22.1987 46.2122 22.3848 46.0304 22.5144 45.8097C22.6279 45.6265 22.7044 45.4225 22.7395 45.2096C22.7782 44.9503 22.7959 44.6884 22.7926 44.4263C22.8022 44.0955 22.7699 43.7649 22.6965 43.4422C22.631 43.2039 22.5066 42.986 22.3348 42.809V42.809ZM21.8288 44.9095C21.8246 45.0342 21.7935 45.1565 21.7377 45.268C21.6817 45.374 21.5929 45.4587 21.4848 45.5096C21.3394 45.5746 21.1808 45.6043 21.0218 45.5961H20.5741V43.2541H21.08C21.2324 43.2466 21.3842 43.2762 21.5227 43.3405C21.6242 43.3988 21.7048 43.4878 21.7529 43.5948C21.8066 43.7158 21.8358 43.8463 21.8389 43.9788C21.8389 44.1237 21.8389 44.2763 21.8389 44.4365C21.8389 44.5967 21.8491 44.762 21.8389 44.9095H21.8288Z" fill="#AFB1B8"/>
<path d="M26.9844 42.326H26.1799L24.6621 49.2148H25.6436L25.932 47.7348H27.2703L27.5586 49.2148H28.5402L26.9844 42.326ZM26.0788 46.7965L26.5619 44.2993H26.5796L27.0603 46.7965H26.0788Z" fill="#AFB1B8"/>
<path d="M33.3264 46.4761H33.3087L31.8263 42.326H30.8827V49.2148H31.8642V45.0724H31.8845L33.3846 49.2148H34.3079V42.326H33.3264V46.4761Z" fill="#AFB1B8"/>
<path d="M39.3243 42.326L38.535 45.0648H38.5148L37.7255 42.326H36.6858L38.0341 46.3032V49.2148H39.0157V46.3032L40.364 42.326H39.3243Z" fill="#AFB1B8"/>
<path d="M0.376709 51.1599H0.849767V52.4873H1.17104V51.1599H1.64157V50.8878H0.376709V51.1599Z" fill="#AFB1B8"/>
<path d="M4.35342 50.8878L3.73364 52.4873H4.07516L4.2067 52.1237H4.84419L4.9808 52.4873H5.3299L4.69494 50.8878H4.35342ZM4.30283 51.8541L4.52039 51.2616L4.73794 51.8541H4.30283Z" fill="#AFB1B8"/>
<path d="M8.28464 51.8975H8.65398V52.1035C8.54612 52.1899 8.41247 52.2374 8.27452 52.2383C8.21 52.2419 8.14557 52.2299 8.08659 52.2034C8.02762 52.1768 7.97582 52.1365 7.93554 52.0857C7.85073 51.9639 7.80888 51.8171 7.81664 51.6687C7.81664 51.3126 7.97095 51.1346 8.27705 51.1346C8.35762 51.1266 8.43839 51.1478 8.50475 51.1945C8.5711 51.2411 8.61865 51.3101 8.6388 51.3889L8.95502 51.3279C8.88671 51.0151 8.66157 50.8575 8.27705 50.8575C8.07139 50.852 7.8714 50.9257 7.71798 51.0634C7.6374 51.143 7.57505 51.2393 7.53529 51.3456C7.49553 51.4519 7.47932 51.5656 7.48778 51.6788C7.47846 51.8977 7.55163 52.112 7.69268 52.2789C7.77105 52.3597 7.86591 52.4225 7.97072 52.4629C8.07554 52.5033 8.18781 52.5203 8.29982 52.5129C8.55009 52.5199 8.79323 52.4287 8.97778 52.2586V51.628H8.28464V51.8975Z" fill="#AFB1B8"/>
<path d="M12.2993 50.8878H11.9755V52.4873H13.0961V52.2152H12.2993V50.8878Z" fill="#AFB1B8"/>
<path d="M15.6942 50.8878H15.3704V52.4873H15.6942V50.8878Z" fill="#AFB1B8"/>
<path d="M19.0132 51.9558L18.358 50.8878H18.0443V52.4873H18.3453V51.4422L18.9879 52.4873H19.3092V50.8878H19.0132V51.9558Z" fill="#AFB1B8"/>
<path d="M22.0135 51.7829H22.8104V51.5108H22.0135V51.1599H22.8711V50.8878H21.6897V52.4873H22.904V52.2152H22.0135V51.7829Z" fill="#AFB1B8"/>
<path d="M29.2889 51.5185H28.659V50.8878H28.3378V52.4873H28.659V51.788H29.2889V52.4873H29.6102V50.8878H29.2889V51.5185Z" fill="#AFB1B8"/>
<path d="M32.3069 51.7829H33.1063V51.5108H32.3069V51.1599H33.167V50.8878H31.9856V52.4873H33.1973V52.2152H32.3069V51.7829Z" fill="#AFB1B8"/>
<path d="M36.4 51.783C36.6782 51.7398 36.8199 51.5923 36.8199 51.338C36.828 51.2699 36.8177 51.201 36.7901 51.1383C36.7625 51.0757 36.7186 51.0217 36.6631 50.982C36.5182 50.9092 36.3566 50.8767 36.1951 50.8879H35.5171V52.4874H35.8384V51.8186H35.9016C35.9701 51.8144 36.0386 51.8266 36.1015 51.8542C36.1484 51.8831 36.1875 51.9233 36.2153 51.9712L36.5644 52.4797H36.9489L36.7541 52.167C36.668 52.0126 36.5466 51.8809 36.4 51.783V51.783ZM36.0762 51.5618H35.8384V51.16H36.0913C36.2015 51.151 36.3124 51.164 36.4177 51.1981C36.4411 51.2188 36.4595 51.2445 36.4717 51.2733C36.4839 51.3021 36.4894 51.3333 36.488 51.3645C36.4865 51.3958 36.4781 51.4263 36.4633 51.4539C36.4485 51.4814 36.4277 51.5052 36.4025 51.5236C36.2969 51.556 36.1863 51.5689 36.0762 51.5618V51.5618Z" fill="#AFB1B8"/>
<path d="M39.4863 51.7829H40.2831V51.5108H39.4863V51.1599H40.3464V50.8878H39.1625V52.4873H40.3767V52.2152H39.4863V51.7829Z" fill="#AFB1B8"/>
</svg>
