<svg width="63" height="46" viewBox="0 0 63 46" fill="none" xmlns="http://www.w3.org/2000/svg">
<path d="M5.13361 38.2506C5.37728 38.5268 5.50709 38.8726 5.50028 39.2276C5.51272 39.4591 5.46811 39.6903 5.36975 39.9039C5.2714 40.1175 5.12182 40.3081 4.9321 40.4616C4.45872 40.789 3.87226 40.949 3.2804 40.9123H0.376709V34.7208H3.22094C3.78237 34.6866 4.33934 34.8321 4.79666 35.1322C4.98034 35.273 5.12579 35.4509 5.22153 35.6519C5.31726 35.853 5.36067 36.0716 5.34833 36.2906C5.36502 36.6322 5.24786 36.9679 5.01799 37.2374C4.7973 37.4834 4.49231 37.6539 4.1525 37.7213C4.53772 37.7857 4.88544 37.9733 5.13361 38.2506V38.2506ZM1.7278 37.316H2.94345C3.21974 37.3347 3.49414 37.2617 3.71645 37.1103C3.80772 37.0346 3.87874 36.9406 3.92399 36.8357C3.96924 36.7308 3.98753 36.6178 3.97742 36.5054C3.986 36.3934 3.96733 36.281 3.92278 36.1764C3.87822 36.0718 3.80888 35.9776 3.71975 35.9005C3.49079 35.7448 3.20786 35.6706 2.92363 35.6918H1.7278V37.316ZM3.83537 39.6903C3.93294 39.6128 4.00963 39.5157 4.05948 39.4066C4.10933 39.2975 4.13099 39.1793 4.12277 39.0612C4.13021 38.9418 4.10756 38.8224 4.05659 38.7123C4.00561 38.6021 3.92766 38.5042 3.82876 38.426C3.59092 38.2646 3.29841 38.1853 3.00291 38.2022H1.7278V39.9051H3.01943C3.31016 39.9205 3.59793 39.8447 3.83537 39.6903V39.6903Z" fill="#AFB1B8"/>
<path d="M10.9476 40.9123L9.36528 38.4926H8.77067V40.9123H7.40967V34.7209H9.98632C10.6358 34.6793 11.2779 34.8677 11.7801 35.2472C12.1403 35.5832 12.3575 36.026 12.3926 36.4957C12.4278 36.9654 12.2785 37.4312 11.9717 37.809C11.6538 38.1425 11.2195 38.3648 10.7428 38.4382L12.4275 40.9123H10.9476ZM8.77067 37.6487H9.88392C10.6569 37.6487 11.0434 37.3362 11.0434 36.7111C11.0513 36.5834 11.0301 36.4557 10.9812 36.3359C10.9323 36.2162 10.8567 36.107 10.7593 36.0154C10.515 35.8294 10.2004 35.7392 9.88392 35.7644H8.75746L8.77067 37.6487Z" fill="#AFB1B8"/>
<path d="M18.3869 39.666H15.6748L15.1958 40.9122H13.7687L16.2595 34.7903H17.8022L20.283 40.9122H18.856L18.3869 39.666ZM18.0235 38.7284L17.0325 36.1151L16.0415 38.7284H18.0235Z" fill="#AFB1B8"/>
<path d="M27.6991 40.9123H26.348L23.3188 36.702V40.9123H21.971V34.7208H23.3188L26.348 38.9553V34.7208H27.6991V40.9123Z" fill="#AFB1B8"/>
<path d="M35.4093 39.4303C35.1299 39.8977 34.7043 40.278 34.187 40.5222C33.5989 40.7942 32.9462 40.9282 32.2876 40.9123H29.8827V34.7209H32.2876C32.9451 34.7051 33.5969 34.8359 34.187 35.102C34.7042 35.3406 35.1303 35.7171 35.4093 36.1818C35.6874 36.6853 35.8323 37.2417 35.8323 37.806C35.8323 38.3703 35.6874 38.9267 35.4093 39.4303V39.4303ZM33.8633 39.2821C34.2489 38.8707 34.4609 38.3466 34.4609 37.8045C34.4609 37.2624 34.2489 36.7383 33.8633 36.327C33.3972 35.9544 32.7894 35.7653 32.1719 35.8007H31.2338V39.8083H32.1719C32.7894 39.8437 33.3972 39.6546 33.8633 39.2821Z" fill="#AFB1B8"/>
<path d="M19.2325 0.282104C19.2325 0.282104 36.6712 6.31024 36.3012 15.0333V29.7876C36.3012 29.7876 18.8758 23.7564 19.2391 15.0333L19.2325 0.282104Z" fill="#AFB1B8"/>
<path d="M51.837 26.3334C55.1305 24.2582 58.94 22.9728 62.9167 22.595V17.9763C58.3346 19.5933 54.4476 22.5252 51.837 26.3334V26.3334Z" fill="#AFB1B8"/>
<path d="M49.8584 27.7249C52.554 22.755 57.2272 18.92 62.9167 17.0085V3.70007C62.9167 3.70007 38.0817 12.2871 38.607 24.7093V45.7155C38.607 45.7155 39.7136 45.3314 41.4545 44.6115C41.4545 43.9401 41.4545 43.2625 41.5338 42.582C42.0478 36.815 45.0421 31.4709 49.8584 27.7249V27.7249Z" fill="#AFB1B8"/>
<path d="M47.4964 35.5285C47.6269 34.0716 47.918 32.6306 48.3652 31.2274C45.3663 34.4625 43.5502 38.4768 43.1723 42.706C43.1359 43.1052 43.1161 43.5045 43.1062 43.9158C44.5168 43.2958 46.1585 42.5215 47.8829 41.6111C47.4429 39.6102 47.3127 37.5626 47.4964 35.5285V35.5285Z" fill="#AFB1B8"/>
<path d="M48.4842 35.6041C48.3188 37.4444 48.4222 39.2967 48.7914 41.112C55.5766 37.3947 63.2008 31.6509 62.9068 24.7093V24.1044C58.0591 24.601 53.5235 26.5414 49.9971 29.6274C49.1715 31.5398 48.6616 33.5541 48.4842 35.6041V35.6041Z" fill="#AFB1B8"/>
</svg>
