<svg width="42" height="48" viewBox="0 0 42 48" fill="none" xmlns="http://www.w3.org/2000/svg">
<path fill-rule="evenodd" clip-rule="evenodd" d="M6.37671 0.515381L13.3845 7.14951L0.376709 7.14185V39.3291H34.3767V27.0224L41.3767 33.6492V0.515381H6.37671ZM34.0691 26.2437L14.1993 7.43334H34.0691V26.2437ZM27.8998 34.6209H5.75679V12.9733H7.32201V33.1551H27.8998V34.6209ZM10.9856 43.6145L10.1677 45.2991L9.34985 43.6145H8.66382L9.85767 45.8606V47.1692H10.4778V45.8606L11.6692 43.6145H10.9856ZM12.0134 47.1692L12.3015 46.3416H13.6785L13.969 47.1692H14.6135L13.2683 43.6145H12.7141L11.3713 47.1692H12.0134ZM12.99 44.3689L13.5051 45.8435H12.4749L12.99 44.3689ZM16.2468 45.7581C16.1573 45.8948 16.1125 46.0453 16.1125 46.2097C16.1125 46.5092 16.2175 46.7525 16.4275 46.9397C16.6391 47.1252 16.9207 47.218 17.2722 47.218C17.6238 47.218 17.9265 47.1228 18.1804 46.9324L18.3806 47.1692H19.0691L18.5466 46.5515C18.7517 46.2716 18.8542 45.9127 18.8542 45.4749H18.3391C18.3391 45.7141 18.2895 45.9314 18.1902 46.1267L17.5042 45.3162L17.7458 45.1404C17.9167 45.0167 18.0396 44.893 18.1145 44.7693C18.1894 44.644 18.2268 44.5072 18.2268 44.3591C18.2268 44.1345 18.1438 43.9465 17.9778 43.7952C17.8134 43.6422 17.6018 43.5657 17.343 43.5657C17.0566 43.5657 16.8287 43.6471 16.6594 43.8098C16.4902 43.9709 16.4055 44.1907 16.4055 44.469C16.4055 44.5829 16.4324 44.7009 16.4861 44.823C16.5414 44.9451 16.6383 45.0932 16.7766 45.2673C16.5129 45.4561 16.3363 45.6197 16.2468 45.7581ZM17.8508 46.5442C17.6767 46.6777 17.4895 46.7444 17.2893 46.7444C17.1119 46.7444 16.9703 46.6931 16.8645 46.5906C16.7587 46.488 16.7058 46.3546 16.7058 46.1902C16.7058 45.9998 16.8035 45.8305 16.9988 45.6824L17.0745 45.6287L17.8508 46.5442ZM17.2136 44.9695C17.046 44.7628 16.9622 44.5911 16.9622 44.4543C16.9622 44.3355 16.9963 44.2371 17.0647 44.1589C17.1331 44.0808 17.225 44.0417 17.3406 44.0417C17.448 44.0417 17.5367 44.0751 17.6067 44.1418C17.6767 44.207 17.7117 44.2859 17.7117 44.3787C17.7117 44.5186 17.6612 44.6334 17.5603 44.7229L17.4846 44.7839L17.2136 44.9695ZM22.9998 46.9006C23.2439 46.6874 23.3839 46.3912 23.4197 46.012H22.8044C22.7719 46.2659 22.6946 46.4473 22.5725 46.5564C22.4504 46.6654 22.2681 46.72 22.0256 46.72C21.7603 46.72 21.5585 46.6191 21.4202 46.4172C21.2834 46.2154 21.2151 45.9224 21.2151 45.5383V45.2234C21.2183 44.8442 21.2916 44.5569 21.4348 44.3616C21.5797 44.1646 21.7864 44.0662 22.0549 44.0662C22.2861 44.0662 22.461 44.1231 22.5798 44.2371C22.7003 44.3494 22.7751 44.5333 22.8044 44.7888H23.4197C23.3806 44.3998 23.2415 44.0987 23.0022 43.8855C22.7629 43.6723 22.4472 43.5657 22.0549 43.5657C21.7636 43.5657 21.5064 43.6348 21.2834 43.7732C21.0621 43.9115 20.892 44.1085 20.7732 44.364C20.6544 44.6195 20.595 44.915 20.595 45.2502V45.5823C20.5999 45.9094 20.6609 46.1967 20.7781 46.4441C20.8953 46.6915 21.0613 46.8827 21.2761 47.0178C21.4926 47.1513 21.7424 47.218 22.0256 47.218C22.4309 47.218 22.7556 47.1122 22.9998 46.9006ZM26.6301 46.4026C26.7506 46.1389 26.8108 45.8329 26.8108 45.4846V45.2869C26.8092 44.9402 26.7473 44.6366 26.6252 44.3762C26.5032 44.1142 26.3298 43.914 26.1052 43.7756C25.8822 43.6357 25.6259 43.5657 25.3362 43.5657C25.0465 43.5657 24.7893 43.6365 24.5647 43.7781C24.3417 43.918 24.1684 44.1207 24.0447 44.386C23.9226 44.6513 23.8616 44.9573 23.8616 45.304V45.5042C23.8632 45.8443 23.925 46.1446 24.0471 46.405C24.1708 46.6654 24.345 46.8665 24.5696 47.0081C24.7958 47.148 25.053 47.218 25.3411 47.218C25.6324 47.218 25.8896 47.148 26.1125 47.0081C26.3372 46.8665 26.5097 46.6646 26.6301 46.4026ZM25.9685 44.3933C26.1182 44.6033 26.1931 44.9052 26.1931 45.2991V45.4846C26.1931 45.885 26.1191 46.1894 25.9709 46.3977C25.8245 46.606 25.6145 46.7102 25.3411 46.7102C25.0709 46.7102 24.8593 46.6036 24.7063 46.3904C24.5549 46.1772 24.4792 45.8752 24.4792 45.4846V45.2795C24.4825 44.8971 24.559 44.6016 24.7087 44.3933C24.8601 44.1833 25.0693 44.0784 25.3362 44.0784C25.6096 44.0784 25.8204 44.1833 25.9685 44.3933Z" fill="#AFB1B8"/>
</svg>
