<svg width="44" height="42" viewBox="0 0 44 42" fill="none" xmlns="http://www.w3.org/2000/svg">
<path d="M6.78293 40.6168C6.79884 40.6172 6.81451 40.6203 6.82902 40.626C6.84353 40.6317 6.8566 40.6399 6.86745 40.65L7.08556 40.8585C6.91626 41.0272 6.707 41.1622 6.47211 41.2541C6.19704 41.3545 5.90059 41.4029 5.60236 41.3963C5.32213 41.4013 5.0437 41.3561 4.78442 41.2636C4.55054 41.1786 4.3404 41.051 4.16824 40.8893C3.99253 40.7216 3.85719 40.525 3.77018 40.3112C3.67489 40.0728 3.62784 39.8219 3.63113 39.5696C3.62726 39.3157 3.67812 39.0633 3.78108 38.8257C3.87633 38.6105 4.02 38.4139 4.20368 38.2476C4.38986 38.0844 4.61257 37.9562 4.85804 37.8709C5.12657 37.7804 5.41253 37.7354 5.70052 37.7382C5.96803 37.7325 6.23412 37.7736 6.48301 37.859C6.69895 37.9404 6.89722 38.0534 7.0692 38.1931L6.88653 38.4158C6.87391 38.4315 6.85822 38.4451 6.84018 38.4561C6.81863 38.4689 6.79258 38.4748 6.76657 38.4726C6.73827 38.4709 6.71099 38.4628 6.6875 38.449L6.58935 38.3897L6.45302 38.3139C6.39417 38.2858 6.33313 38.2612 6.27035 38.2405C6.18948 38.2153 6.10654 38.1955 6.02224 38.1812C5.91525 38.1641 5.80657 38.1562 5.69779 38.1575C5.49041 38.1553 5.28461 38.1891 5.09251 38.257C4.91336 38.32 4.75165 38.4153 4.61811 38.5366C4.48216 38.6657 4.37739 38.8171 4.31002 38.982C4.23323 39.1706 4.19539 39.3696 4.19823 39.5696C4.19496 39.7728 4.23279 39.9749 4.31002 40.1667C4.37655 40.3301 4.47937 40.4807 4.61265 40.6097C4.73753 40.73 4.89231 40.824 5.06525 40.8845C5.24322 40.9486 5.43425 40.9809 5.6269 40.9793C5.73819 40.9808 5.84942 40.9744 5.95953 40.9603C6.13932 40.9413 6.31178 40.887 6.46393 40.8016C6.54024 40.7579 6.61228 40.7087 6.67932 40.6547C6.70735 40.6315 6.74421 40.618 6.78293 40.6168V40.6168Z" fill="#AFB1B8"/>
<path d="M13.081 39.5692C13.0844 39.8206 13.0345 40.0703 12.9338 40.306C12.8449 40.5197 12.705 40.7147 12.5231 40.878C12.3412 41.0414 12.1216 41.1694 11.8787 41.2536C11.3449 41.4305 10.7548 41.4305 10.221 41.2536C9.97962 41.1681 9.76141 41.0398 9.58028 40.8769C9.39852 40.7106 9.25753 40.5139 9.16586 40.2989C8.96945 39.8217 8.96945 39.3001 9.16586 38.8229C9.25887 38.6077 9.39968 38.4105 9.58028 38.2425C9.76295 38.0848 9.98105 37.9614 10.221 37.8801C10.7541 37.7 11.3455 37.7 11.8787 37.8801C12.1209 37.9655 12.34 38.0938 12.5221 38.2567C12.7016 38.4214 12.8416 38.6155 12.9338 38.8277C13.0348 39.0649 13.0847 39.3163 13.081 39.5692ZM12.5085 39.5692C12.5128 39.3681 12.4777 39.1678 12.4049 38.9769C12.3438 38.8134 12.2445 38.6626 12.1131 38.5339C11.9853 38.4122 11.8279 38.3167 11.6524 38.2544C11.2645 38.1248 10.8351 38.1248 10.4473 38.2544C10.2717 38.3167 10.1143 38.4122 9.98652 38.5339C9.85337 38.6618 9.753 38.8128 9.69206 38.9769C9.55334 39.3626 9.55334 39.7758 9.69206 40.1615C9.7536 40.3253 9.8539 40.4762 9.98652 40.6045C10.1145 40.7254 10.2719 40.8201 10.4473 40.8816C10.8358 41.0079 11.2638 41.0079 11.6524 40.8816C11.8277 40.8201 11.9851 40.7254 12.1131 40.6045C12.2439 40.4755 12.3431 40.3248 12.4049 40.1615C12.478 39.9706 12.5131 39.7703 12.5085 39.5692V39.5692Z" fill="#AFB1B8"/>
<path d="M17.378 40.1901L17.4352 40.3227C17.457 40.2754 17.4761 40.2327 17.4979 40.1901C17.5187 40.1455 17.5424 40.102 17.5688 40.0598L18.962 37.8592C18.9893 37.8213 19.0138 37.7976 19.0411 37.7905C19.0782 37.7807 19.1169 37.7767 19.1556 37.7787H19.5673V41.3579H19.0793V38.7262C19.0793 38.693 19.0793 38.6551 19.0793 38.6149C19.0766 38.5738 19.0766 38.5327 19.0793 38.4917L17.6779 40.7231C17.6601 40.7565 17.6316 40.7847 17.5958 40.8045C17.5601 40.8242 17.5185 40.8346 17.4761 40.8344H17.397C17.3546 40.8349 17.3129 40.8246 17.2771 40.8049C17.2412 40.7851 17.2128 40.7567 17.1953 40.7231L15.753 38.4775C15.753 38.5201 15.753 38.5627 15.753 38.6054C15.753 38.648 15.753 38.6859 15.753 38.7191V41.3508H15.2813V37.7787H15.693C15.7317 37.7767 15.7705 37.7807 15.8075 37.7905C15.8413 37.8051 15.8683 37.8294 15.8839 37.8592L17.3071 40.0622C17.335 40.1029 17.3588 40.1457 17.378 40.1901V40.1901Z" fill="#AFB1B8"/>
<path d="M22.621 40.0122V41.3529H22.0757V37.7786H23.2917C23.5212 37.7747 23.7501 37.8011 23.9706 37.8567C24.1471 37.9002 24.3107 37.9761 24.4504 38.0794C24.5715 38.1762 24.6649 38.2962 24.7231 38.43C24.7874 38.5758 24.8189 38.731 24.8158 38.8871C24.8182 39.0439 24.7839 39.1994 24.7149 39.3443C24.6494 39.4814 24.5486 39.6037 24.4204 39.7019C24.2806 39.8095 24.1161 39.8902 23.9379 39.9388C23.7256 39.9977 23.5036 40.0258 23.2808 40.0217L22.621 40.0122ZM22.621 39.6285H23.2808C23.4241 39.6301 23.5668 39.6117 23.7034 39.574C23.8161 39.5411 23.9199 39.4887 24.0088 39.4201C24.0907 39.3545 24.1541 39.2735 24.1942 39.1832C24.2388 39.0877 24.261 38.9854 24.2596 38.8824C24.2659 38.783 24.2473 38.6836 24.2049 38.5912C24.1625 38.4987 24.0974 38.4154 24.0142 38.3471C23.8059 38.2058 23.5443 38.1373 23.2808 38.1552H22.621V39.6285Z" fill="#AFB1B8"/>
<path d="M29.9497 41.3578H29.5189C29.4757 41.3592 29.4333 41.3475 29.399 41.3246C29.368 41.3023 29.3437 41.2739 29.3281 41.2417L28.9573 40.377H27.0951L26.7107 41.2417C26.6966 41.2733 26.673 41.3011 26.6425 41.3222C26.6079 41.3465 26.5643 41.3591 26.5198 41.3578H26.0891L27.7249 37.7782H28.292L29.9497 41.3578ZM27.2505 40.0288H28.7883L28.1394 38.5718C28.0898 38.4622 28.0488 38.3498 28.0167 38.2354L27.954 38.4226C27.9349 38.4794 27.9131 38.5315 27.894 38.5742L27.2505 40.0288Z" fill="#AFB1B8"/>
<path d="M32.3054 37.7949C32.338 37.8104 32.366 37.8323 32.3872 37.8588L34.7729 40.5571C34.7729 40.5144 34.7729 40.4718 34.7729 40.4315C34.7729 40.3913 34.7729 40.351 34.7729 40.3131V37.7783H35.2609V41.3578H34.9883C34.9496 41.3588 34.9112 41.3515 34.8765 41.3365C34.8428 41.3194 34.8132 41.2969 34.7892 41.2701L32.4063 38.5742C32.4089 38.6153 32.4089 38.6564 32.4063 38.6974C32.4063 38.7377 32.4063 38.7732 32.4063 38.8064V41.3578H31.9183V37.7783H32.2073C32.241 37.7775 32.2745 37.7831 32.3054 37.7949V37.7949Z" fill="#AFB1B8"/>
<path d="M39.2797 39.9342V41.3556H38.7344V39.9342L37.2267 37.7784H37.7147C37.7568 37.7763 37.7983 37.7872 37.832 37.8092C37.8616 37.8322 37.8865 37.8595 37.9056 37.8898L38.8489 39.2804C38.8871 39.3396 38.9198 39.3941 38.9471 39.4462C38.9744 39.4983 38.9962 39.548 39.0153 39.5978L39.0861 39.4438C39.1126 39.3875 39.1436 39.3329 39.1789 39.2804L40.1086 37.8803C40.1281 37.8524 40.152 37.8268 40.1795 37.8045C40.2118 37.7799 40.2538 37.7672 40.2967 37.769H40.7902L39.2797 39.9342Z" fill="#AFB1B8"/>
<path d="M17.108 31.7715C17.3452 31.7976 17.5852 31.8189 17.8278 31.8379C21.5067 30.408 24.6188 28.0677 26.7753 25.1096C28.9318 22.1514 30.0369 18.7066 29.9525 15.2058L25.8982 11.6832C26.7225 15.4105 26.3369 19.2636 24.7845 22.8113C23.2321 26.359 20.5742 29.4615 17.108 31.7715V31.7715Z" fill="#AFB1B8"/>
<path d="M15.6603 31.6077L15.7694 31.6266C19.4733 29.3248 22.2972 26.1104 23.8759 22.3992C25.4546 18.6881 25.7156 14.6507 24.625 10.8093L18.8503 5.79211C21.186 9.91614 22.1262 14.5315 21.5615 19.1015C20.9968 23.6716 18.9504 28.0084 15.6603 31.6077V31.6077Z" fill="#AFB1B8"/>
<path d="M35.2446 19.3419C34.2635 23.1885 31.8808 26.6576 28.4502 29.2343C27.4483 29.9909 26.3676 30.665 25.222 31.2478C28.0155 30.5344 30.5831 29.2732 32.7269 27.5613C34.8706 25.8495 36.5333 23.7328 37.5866 21.3744L35.2446 19.3419Z" fill="#AFB1B8"/>
<path d="M34.3257 18.7754L30.9913 15.8783C30.9275 19.1814 29.8467 22.4094 27.8612 25.2267C25.8758 28.0441 23.058 30.3481 19.7009 31.8991H19.7173C20.4654 31.8988 21.2129 31.8601 21.9557 31.783C25.0931 30.6704 27.8647 28.9003 30.0231 26.6306C32.1816 24.3609 33.6598 21.6622 34.3257 18.7754V18.7754Z" fill="#AFB1B8"/>
<path d="M16.1429 3.67629L12.165 0.215332C8.60887 1.40929 5.55045 3.50821 3.39002 6.23741C1.22959 8.9666 0.0677984 12.1989 0.0567017 15.5113H0.0567017C0.0700298 19.1714 1.48791 22.723 4.08593 25.6042C6.68396 28.4853 10.3137 30.5313 14.4007 31.4184C18.0491 27.5564 20.1852 22.7841 20.4985 17.7951C20.8118 12.8062 19.2861 7.86033 16.1429 3.67629V3.67629Z" fill="#AFB1B8"/>
<path d="M43.5167 18.2427C43.5023 13.9002 41.5105 9.73917 37.9763 6.66856C34.4422 3.59795 29.653 1.86737 24.655 1.85487V1.85487C22.3454 1.85279 20.0555 2.22307 17.9015 2.94692L42.2571 24.108C43.091 22.2375 43.5181 20.2487 43.5167 18.2427V18.2427Z" fill="#AFB1B8"/>
</svg>
