<svg width="85" height="41" viewBox="0 0 85 41" fill="none" xmlns="http://www.w3.org/2000/svg">
<path d="M13.5229 12.6182H13.52C11.122 12.6182 9.17798 14.3457 9.17798 16.4768V16.4794C9.17798 18.6105 11.122 20.338 13.52 20.338H13.5229C15.9209 20.338 17.8649 18.6105 17.8649 16.4794V16.4768C17.8649 14.3457 15.9209 12.6182 13.5229 12.6182Z" fill="#2196F3"/>
<path d="M45.5717 11.3847C45.5649 8.42467 44.239 5.58761 41.8841 3.49433C39.5292 1.40106 36.3371 0.222053 33.0064 0.215332V0.215332C29.6748 0.220709 26.4812 1.39912 24.1251 3.49254C21.769 5.58596 20.4422 8.42379 20.4354 11.3847V11.3847V27.7075C20.4354 27.7075 45.5689 25.2198 45.5717 11.3872V11.3847Z" fill="#2196F3"/>
<path d="M0.376709 33.0649C0.38275 35.1244 1.30586 37.0982 2.94432 38.5548C4.58278 40.0114 6.80338 40.8324 9.12089 40.8384V40.8384C11.4379 40.8324 13.6581 40.0117 15.2965 38.5557C16.9348 37.0996 17.8583 35.1265 17.8651 33.0674V33.0674V21.7097C17.8651 21.7097 0.376709 23.442 0.376709 33.0649ZM9.12089 35.0998C8.66801 35.0998 8.2253 34.9805 7.84874 34.7569C7.47219 34.5333 7.1787 34.2154 7.00539 33.8436C6.83208 33.4718 6.78673 33.0626 6.87509 32.6678C6.96344 32.2731 7.18152 31.9105 7.50176 31.6259C7.82199 31.3413 8.22999 31.1475 8.67417 31.069C9.11835 30.9905 9.57875 31.0308 9.99716 31.1848C10.4156 31.3388 10.7732 31.5996 11.0248 31.9343C11.2764 32.2689 11.4107 32.6624 11.4107 33.0649C11.4118 33.3327 11.3534 33.5982 11.2389 33.8459C11.1243 34.0937 10.9558 34.319 10.7431 34.5087C10.5303 34.6985 10.2775 34.8491 9.99915 34.9518C9.72077 35.0546 9.42231 35.1075 9.12089 35.1075V35.0998Z" fill="#2196F3"/>
<path d="M26.7944 33.9791H25.1069V35.7223H24.228V31.4567H27.0053V32.1686H25.1069V33.2701H26.7944V33.9791ZM31.019 33.6862C31.019 34.1061 30.9448 34.4742 30.7963 34.7906C30.6479 35.1071 30.435 35.3512 30.1577 35.5231C29.8823 35.6949 29.5659 35.7809 29.2084 35.7809C28.8549 35.7809 28.5395 35.6959 28.2621 35.526C27.9848 35.3561 27.77 35.1139 27.6176 34.7994C27.4653 34.483 27.3881 34.1198 27.3862 33.7096V33.4987C27.3862 33.0787 27.4614 32.7096 27.6118 32.3912C27.7641 32.0709 27.978 31.8258 28.2534 31.6559C28.5307 31.484 28.8471 31.3981 29.2026 31.3981C29.558 31.3981 29.8735 31.484 30.1489 31.6559C30.4262 31.8258 30.6401 32.0709 30.7905 32.3912C30.9428 32.7096 31.019 33.0778 31.019 33.4957V33.6862ZM30.1284 33.4928C30.1284 33.0455 30.0483 32.7057 29.8881 32.4733C29.728 32.2408 29.4995 32.1246 29.2026 32.1246C28.9077 32.1246 28.6801 32.2399 28.52 32.4703C28.3598 32.6989 28.2787 33.0348 28.2768 33.4781V33.6862C28.2768 34.1217 28.3569 34.4596 28.517 34.6998C28.6772 34.9401 28.9077 35.0602 29.2084 35.0602C29.5034 35.0602 29.7299 34.9449 29.8881 34.7145C30.0463 34.4821 30.1264 34.1442 30.1284 33.7008V33.4928ZM33.8696 34.6031C33.8696 34.4371 33.811 34.3102 33.6938 34.2223C33.5766 34.1324 33.3657 34.0387 33.061 33.941C32.7563 33.8414 32.5151 33.7438 32.3373 33.6481C31.853 33.3864 31.6108 33.0338 31.6108 32.5905C31.6108 32.36 31.6752 32.1549 31.8041 31.9752C31.935 31.7936 32.1215 31.652 32.3637 31.5504C32.6078 31.4489 32.8813 31.3981 33.184 31.3981C33.4887 31.3981 33.7602 31.4537 33.9985 31.5651C34.2368 31.6744 34.4213 31.8297 34.5522 32.0309C34.685 32.2321 34.7514 32.4606 34.7514 32.7164H33.8725C33.8725 32.5211 33.811 32.3698 33.6879 32.2623C33.5649 32.153 33.392 32.0983 33.1694 32.0983C32.9545 32.0983 32.7875 32.1442 32.6684 32.236C32.5493 32.3258 32.4897 32.4449 32.4897 32.5934C32.4897 32.7321 32.559 32.8483 32.6977 32.942C32.8383 33.0358 33.0444 33.1237 33.3159 33.2057C33.8159 33.3561 34.1801 33.5426 34.4086 33.7653C34.6371 33.9879 34.7514 34.2653 34.7514 34.5973C34.7514 34.9664 34.6118 35.2565 34.3325 35.4674C34.0532 35.6764 33.6772 35.7809 33.2045 35.7809C32.8764 35.7809 32.5776 35.7213 32.308 35.6022C32.0385 35.4811 31.8325 35.316 31.6899 35.1071C31.5493 34.8981 31.4789 34.6559 31.4789 34.3805H32.3608C32.3608 34.8512 32.642 35.0865 33.2045 35.0865C33.4135 35.0865 33.5766 35.0446 33.6938 34.9606C33.811 34.8746 33.8696 34.7555 33.8696 34.6031ZM38.56 32.1686H37.2534V35.7223H36.3745V32.1686H35.0854V31.4567H38.56V32.1686ZM41.6303 33.8737H39.9428V35.0162H41.9233V35.7223H39.0639V31.4567H41.9174V32.1686H39.9428V33.1852H41.6303V33.8737ZM44.018 34.1608H43.3178V35.7223H42.4389V31.4567H44.0239C44.5278 31.4567 44.9164 31.569 45.1899 31.7936C45.4633 32.0182 45.6 32.3356 45.6 32.7457C45.6 33.0367 45.5366 33.2799 45.4096 33.4752C45.2846 33.6686 45.0942 33.8229 44.8383 33.9381L45.7612 35.6813V35.7223H44.8178L44.018 34.1608ZM43.3178 33.4489H44.0268C44.2475 33.4489 44.4184 33.3932 44.5395 33.2819C44.6606 33.1686 44.7211 33.0133 44.7211 32.816C44.7211 32.6149 44.6635 32.4567 44.5483 32.3414C44.435 32.2262 44.2602 32.1686 44.0239 32.1686H43.3178V33.4489ZM48.644 34.2194V35.7223H47.7651V31.4567H49.4291C49.7495 31.4567 50.0307 31.5153 50.2729 31.6324C50.517 31.7496 50.7045 31.9166 50.8354 32.1334C50.9662 32.3483 51.0317 32.5934 51.0317 32.8688C51.0317 33.2867 50.8881 33.6168 50.601 33.859C50.3159 34.0992 49.9203 34.2194 49.4145 34.2194H48.644ZM48.644 33.5074H49.4291C49.6616 33.5074 49.8383 33.4528 49.9594 33.3434C50.0825 33.234 50.144 33.0778 50.144 32.8746C50.144 32.6656 50.0825 32.4967 49.9594 32.3678C49.8364 32.2389 49.6664 32.1725 49.4496 32.1686H48.644V33.5074ZM54.2045 33.8737H52.517V35.0162H54.4975V35.7223H51.6381V31.4567H54.4916V32.1686H52.517V33.1852H54.2045V33.8737ZM58.2827 32.1686H56.976V35.7223H56.0971V32.1686H54.808V31.4567H58.2827V32.1686ZM61.353 33.8737H59.6655V35.0162H61.6459V35.7223H58.7866V31.4567H61.6401V32.1686H59.6655V33.1852H61.353V33.8737ZM63.7407 34.1608H63.0405V35.7223H62.1616V31.4567H63.7465C64.2504 31.4567 64.6391 31.569 64.9125 31.7936C65.186 32.0182 65.3227 32.3356 65.3227 32.7457C65.3227 33.0367 65.2592 33.2799 65.1323 33.4752C65.0073 33.6686 64.8168 33.8229 64.561 33.9381L65.4838 35.6813V35.7223H64.5405L63.7407 34.1608ZM63.0405 33.4489H63.7495C63.9702 33.4489 64.1411 33.3932 64.2621 33.2819C64.3832 33.1686 64.4438 33.0133 64.4438 32.816C64.4438 32.6149 64.3862 32.4567 64.2709 32.3414C64.1577 32.2262 63.9828 32.1686 63.7465 32.1686H63.0405V33.4489ZM68.2055 34.6031C68.2055 34.4371 68.1469 34.3102 68.0297 34.2223C67.9125 34.1324 67.7016 34.0387 67.3969 33.941C67.0922 33.8414 66.851 33.7438 66.6733 33.6481C66.1889 33.3864 65.9467 33.0338 65.9467 32.5905C65.9467 32.36 66.0112 32.1549 66.1401 31.9752C66.2709 31.7936 66.4575 31.652 66.6996 31.5504C66.9438 31.4489 67.2172 31.3981 67.52 31.3981C67.8246 31.3981 68.0961 31.4537 68.3344 31.5651C68.5727 31.6744 68.7573 31.8297 68.8881 32.0309C69.0209 32.2321 69.0873 32.4606 69.0873 32.7164H68.2084C68.2084 32.5211 68.1469 32.3698 68.0239 32.2623C67.9008 32.153 67.728 32.0983 67.5053 32.0983C67.2905 32.0983 67.1235 32.1442 67.0043 32.236C66.8852 32.3258 66.8256 32.4449 66.8256 32.5934C66.8256 32.7321 66.895 32.8483 67.0336 32.942C67.1743 33.0358 67.3803 33.1237 67.6518 33.2057C68.1518 33.3561 68.5161 33.5426 68.7446 33.7653C68.9731 33.9879 69.0873 34.2653 69.0873 34.5973C69.0873 34.9664 68.9477 35.2565 68.6684 35.4674C68.3891 35.6764 68.0131 35.7809 67.5405 35.7809C67.2123 35.7809 66.9135 35.7213 66.644 35.6022C66.3745 35.4811 66.1684 35.316 66.0258 35.1071C65.8852 34.8981 65.8149 34.6559 65.8149 34.3805H66.6967C66.6967 34.8512 66.978 35.0865 67.5405 35.0865C67.7495 35.0865 67.9125 35.0446 68.0297 34.9606C68.1469 34.8746 68.2055 34.7555 68.2055 34.6031Z" fill="#2196F3"/>
</svg>
